<svg width="24" height="24" viewBox="0 0 24 24" >
<path fill-rule="evenodd" clip-rule="evenodd" d="M9.10209 8.5037V8.31051C9.10209 7.35023 9.88054 6.57178 10.8408 6.57178H13.1591C14.1194 6.57178 14.8979 7.35023 14.8979 8.31051V8.5037H16.8298V10.4356H15.8638V16.4246C15.8638 17.3849 15.0854 18.1633 14.1251 18.1633H9.87486C8.91458 18.1633 8.13613 17.3849 8.13613 16.4246V10.4356H7.17017V8.5037H9.10209ZM10.8408 7.96276H13.1591C13.3512 7.96276 13.5069 8.11845 13.5069 8.31051V8.5037H10.4931V8.31051C10.4931 8.11845 10.6488 7.96276 10.8408 7.96276ZM14.4148 10.9186H13.4489V15.7484H14.4148V10.9186ZM9.58512 10.9186H10.5511V15.7484H9.58512V10.9186ZM12.483 10.9186H11.517V15.7484H12.483V10.9186Z" />
</svg>
